<?xml version="1.0" encoding="UTF-8" standalone="no"?>
<svg
   width="64"
   height="84"
   version="1.1"
   viewBox="0 0 16.933 22.225"
   id="svg2919"
   sodipodi:docname="9.svg"
   inkscape:version="1.1.1 (3bf5ae0d25, 2021-09-20)"
   xmlns:inkscape="http://www.inkscape.org/namespaces/inkscape"
   xmlns:sodipodi="http://sodipodi.sourceforge.net/DTD/sodipodi-0.dtd"
   xmlns="http://www.w3.org/2000/svg"
   xmlns:svg="http://www.w3.org/2000/svg">
  <defs
     id="defs2923" />
  <sodipodi:namedview
     id="namedview2921"
     pagecolor="#ffffff"
     bordercolor="#666666"
     borderopacity="1.0"
     inkscape:pageshadow="2"
     inkscape:pageopacity="0.0"
     inkscape:pagecheckerboard="0"
     showgrid="false"
     inkscape:zoom="8.6547619"
     inkscape:cx="32.005502"
     inkscape:cy="41.942228"
     inkscape:window-width="1920"
     inkscape:window-height="1043"
     inkscape:window-x="0"
     inkscape:window-y="0"
     inkscape:window-maximized="1"
     inkscape:current-layer="svg2919" />
  <path
     d="M 4.7596 1.1562 L 4.7596 21.2322 L 2.8084 21.2322 L 2.8084 1.1562 Z M 4.49593 1.42182 L 3.07213 1.42182 L 3.07213 20.9668 L 4.49593 20.9668 Z"
     color="#000000"
     style="-inkscape-stroke:none"
     id="path2913" />
  <g
     fill="none"
     stroke="#000"
     stroke-width=".51254"
     aria-label="X"
     id="g2917">
    <path
       d="m 5.9840202,1.5573483 0.26562,0.39844 3.0137414,9.2972227 -3.9610414,9.6575 h 2.79878 l 2.5508618,-7.57161 2.576789,7.57161 h 2.7871 l -3.803289,-9.4446 3.484989,-9.9085227 h -2.7871 l -2.106089,7.824623 -2.0332618,-7.824623 z m 0.95703,0.51172 h 1.55657 l 2.3047618,8.2328227 2.379489,-8.2328227 h 1.5566 l -3.141189,9.3949227 3.463489,8.93292 h -1.5566 l -2.850189,-7.98372 -2.8262318,7.98372 h -1.5664 l 3.6192314,-9.14192 z"
       color="#000000"
       fill="#000000"
       stroke="none"
       style="-inkscape-stroke:none"
       id="path2915"
       sodipodi:nodetypes="ccccccccccccccccccccccccccc" />
  </g>
</svg>
