<?xml version="1.0" encoding="UTF-8"?>
<svg width="64" height="84" version="1.1" viewBox="0 0 16.933 22.225" xmlns="http://www.w3.org/2000/svg">
 <g transform="scale(.8905 1.123)" fill="none" stroke="#000" stroke-width=".5944" aria-label="B">
  <path d="m3.5293 0.76758v17.928h6.5195l4.6797 -1.332 1.6895 -3.8184 -1.0293 -3.123 -2.0254 -1.3496 1.5273 -1.0078 0.80664 -2.7168 -1.5664 -3.4043 -4.3145 -1.1758zm0.59375 0.59375h5.6934l3.9531 1.0527 1.334 2.9336 -0.67969 2.3477 -1.9961 1.0625 -0.01563 0.58398 2.5137 1.4512v2e-3l2e-3 2e-3 0.89648 2.748 -1.4688 3.3555 -4.3066 1.1992h-5.9258zm1.752 1.334v5.8184h3.7676l2.7344 -0.69922v-0.0019531l0.96484 -2.209 -0.96289 -2.1953 -2.7363 -0.71289zm0.59375 0.59375h3.1738l2.3711 0.58789h2e-3l0.73047 1.7266 -0.73047 1.7383 -2.373 0.57617h-3.1739zm-0.59375 6.5332v6.9453h4.0586l2.9902 -0.84961 1.0215 -2.6289 -1.0215 -2.6172 -2.9902 -0.84961zm0.59375 0.5957h3.4648l2.6035 0.70508 2e-3 2e-3h2e-3l0.81055 2.1641 -0.81445 2.1777 -2.6035 0.70703h-3.4649z" color="#000000" fill="#000" stroke="none" style="-inkscape-stroke:none"/>
 </g>
</svg>
