<?xml version="1.0" encoding="UTF-8"?>
<svg width="64" height="84" version="1.1" viewBox="0 0 16.933 22.225" xmlns="http://www.w3.org/2000/svg">
 <g transform="scale(.8905 1.123)" fill="none" stroke="#000" stroke-width=".5944" aria-label="C">
  <path d="m11.291 0.45312 -6.416 2.5098 -2.3438 6.7852 2.3438 6.7871 6.416 2.4961 2.9902 -0.43164 2.6914 -1.291 0.13086 -0.08789v-3.291l-0.5 0.46484 -2.4395 1.5918h-2e-3l-2.7324 0.52344 -4.3262 -1.709 -1.5058 -5.0527 1.5059 -5.0508v-0.00195l4.3262 -1.7207 2.7324 0.52539h2e-3l2.4395 1.5898 0.5 0.46484v-3.3125l-0.13086 -0.087891 -2.67 -1.2695h-2e-3zm0 0.5957 2.8398 0.4043 2e-3 0.00195 2.375 1.127v1.7461l-2.1211 -1.3789 -2.957 -0.56836 -4.7734 1.9258 -1.6523 5.4414 1.6504 5.4434h0.00195l4.7734 1.9121 2.957 -0.56641 2.1211 -1.3809v1.7227l-2.4004 1.1523 -2.8164 0.40625 -5.9824 -2.3105 -2.1836 -6.3789 2.1836 -6.3789z" color="#000000" fill="#000" stroke="none" style="-inkscape-stroke:none"/>
 </g>
</svg>
