<?xml version="1.0" encoding="UTF-8" standalone="no"?>
<svg
  xmlns:dc="http://purl.org/dc/elements/1.1/"
  xmlns:cc="http://creativecommons.org/ns#"
  xmlns:rdf="http://www.w3.org/1999/02/22-rdf-syntax-ns#"
  xmlns:svg="http://www.w3.org/2000/svg"
  xmlns="http://www.w3.org/2000/svg"
  version="1.1"
  viewBox="0 0 16 21"
  width="16"
  height="21">
  <svg
    viewBox="0 0 16.933357 22.22499"
    width="16"
    height="21">
    <g style="fill:#C0FF20;stroke:none">
      <path d="M 2.087214,0.52914684 H 6.7458509 V 1.5332213 L 5.6332558,2.6458165 H 2.8334226 L 1.5978375,1.4102313 Z" />
      <path d="M 7.0114679,0.52914687 V 1.5332213 l 1.114662,1.1125952 H 10.924413 L 12.159998,1.4102313 11.670622,0.52914687 Z" />
      <path d="m 12.294357,1.6510438 -1.181842,1.1818415 5.3e-4,7.0342059 1.111561,1.1136288 h 1.004075 V 3.3331139 Z" />
      <path d="m 12.226661,11.24427 -1.113629,1.113629 -5.29e-4,7.033689 1.181842,1.181841 0.934311,-1.68207 V 11.24427 Z" />
      <path d="m 8.1256139,19.579173 -1.114146,1.112079 v 1.004074 h 4.6591541 l 0.489376,-0.881084 -1.235068,-1.235069 z" />
      <path d="m 2.8329058,19.579173 -1.235068,1.235069 0.489376,0.881084 h 4.6586371 v -1.004074 l -1.112078,-1.112079 z" />
      <path d="m 0.52916784,11.24427 v 7.647089 l 0.93482696,1.68207 1.181842,-1.180291 5.29e-4,-7.035756 -1.115179,-1.113112 z" />
      <path d="M 1.4639948,1.6510438 0.52916784,3.3331139 V 10.98072 H 1.5332418 l 1.113112,-1.1131121 -5.17e-4,-7.0362727 z" />
      <path d="M 10.22523,2.9114336 8.1938269,6.5675464 7.3577009,9.7911266 h 1.465545 l 2.0236521,-3.641643 v -3.23805 z" />
      <path d="m 4.9351059,12.433346 -2.0236521,3.641127 v 3.239083 h 0.621669 l 2.0303701,-3.655079 0.836125,-3.225131 z" />
    </g>
  </svg>
</svg>
