<?xml version="1.0" encoding="UTF-8" standalone="no"?>
<svg
  xmlns:dc="http://purl.org/dc/elements/1.1/"
  xmlns:cc="http://creativecommons.org/ns#"
  xmlns:rdf="http://www.w3.org/1999/02/22-rdf-syntax-ns#"
  xmlns:svg="http://www.w3.org/2000/svg"
  xmlns="http://www.w3.org/2000/svg"
  version="1.1"
  viewBox="0 0 16 21"
  width="16"
  height="21">
  <svg
    viewBox="0 0 16.933357 22.22499"
    width="16"
    height="21">
    <g style="fill:#C0FF20;stroke:none">
      <path d="M 2.087214,0.52914684 H 6.7458509 V 1.5332213 L 5.6332558,2.6458165 H 2.8334226 L 1.5978375,1.4102313 Z" />
      <path d="m 8.1256139,19.579173 -1.114146,1.112079 v 1.004074 h 4.6591541 l 0.489376,-0.881084 -1.235068,-1.235069 z" />
      <path d="m 2.8329058,19.579173 -1.235068,1.235069 0.489376,0.881084 h 4.6586371 v -1.004074 l -1.112078,-1.112079 z" />
      <path d="m 6.8786599,1.7755841 -1.057819,1.0557511 -5.29e-4,3.6716155 0.852146,3.2881759 h 0.412378 L 7.9375109,6.5029507 V 2.8318519 Z" />
      <path d="m 6.6724699,12.433346 -0.852145,3.288176 5.29e-4,3.671616 1.057818,1.057818 1.058851,-1.058335 v -3.669032 l -0.852674,-3.290243 z" />
    </g>
  </svg>
</svg>
