<?xml version="1.0" encoding="UTF-8" standalone="no"?>
<svg
  xmlns:dc="http://purl.org/dc/elements/1.1/"
  xmlns:cc="http://creativecommons.org/ns#"
  xmlns:rdf="http://www.w3.org/1999/02/22-rdf-syntax-ns#"
  xmlns:svg="http://www.w3.org/2000/svg"
  xmlns="http://www.w3.org/2000/svg"
  version="1.1"
  viewBox="0 0 16 21"
  width="16"
  height="21">
  <svg
    viewBox="0 0 16.933357 22.22499"
    width="16"
    height="21">
    <g style="fill:#C0FF20;stroke:none">
      <path d="M 2.087214,0.52914684 H 6.7458509 V 1.5332213 L 5.6332558,2.6458165 H 2.8334226 L 1.5978375,1.4102313 Z" />
      <path d="M 7.0114679,0.52914687 V 1.5332213 l 1.114662,1.1125952 H 10.924413 L 12.159998,1.4102313 11.670622,0.52914687 Z" />
      <path d="m 12.226661,11.24427 -1.113629,1.113629 -5.29e-4,7.033689 1.181842,1.181841 0.934311,-1.68207 V 11.24427 Z" />
      <path d="m 8.1256139,19.579173 -1.114146,1.112079 v 1.004074 h 4.6591541 l 0.489376,-0.881084 -1.235068,-1.235069 z" />
      <path d="m 2.8329058,19.579173 -1.235068,1.235069 0.489376,0.881084 h 4.6586371 v -1.004074 l -1.112078,-1.112079 z" />
      <path d="M 2.9114538,2.9114336 V 6.150517 l 2.0226191,3.6406096 h 1.465545 l -0.835092,-3.22203 -2.0324371,-3.657663 z" />
      <path d="m 7.0114679,10.054677 v 2.115119 h 3.9144951 l 1.058335,-1.056268 -1.058335,-1.058851 z" />
    </g>
  </svg>
</svg>
